<svg xmlns="http://www.w3.org/2000/svg" viewBox="0 0 32 32" fill="none">
  <rect width="32" height="32" fill="#000000" />
  <path fill-rule="evenodd" clip-rule="evenodd" d="M 6 5 H 18.5 C 21.5 5 23.5 6.8 23.5 9.5 C 23.5 11.5 22.2 13 20.2 13.5 C 22.7 14 24 15.8 24 18.5 C 24 21.2 21.8 23 18.5 23 H 6 V 5 Z M 11 9 V 12 H 16.5 C 17.5 12 18.2 11.5 18.2 10.5 C 18.2 9.5 17.5 9 16.5 9 H 11 Z M 11 15 V 19 H 17.5 C 18.5 19 19.2 18.2 19.2 17 C 19.2 15.8 18.5 15 17.5 15 H 11 Z" fill="#ffffff" />
  <rect x="25.5" y="19" width="4" height="4" fill="#f2ff00" />
</svg>
